<svg version="1.2" xmlns="http://www.w3.org/2000/svg" viewBox="0 0 366 326" width="360" height="321">
	<title>react_logo_svg-svg</title>
	<style>
		.s0 { fill: #000000 } 
	</style>
	<path id="Layer" fill-rule="evenodd" class="s0" d="m365.6 162.6c0 22.9-27.3 45.3-69.1 59.2c-2.2 0.7-4.5 1.4-6.8 2.1c0.8 3.4 1.6 6.6 2.2 9.8c8.2 41.8 1.9 76.1-17.7 87.4c-18.9 11-49.6 0.2-80.6-26.5q-5-4.2-9.9-9c-2.5 2.4-5.1 4.8-7.6 7c-32 28-64.9 39.6-84.5 28.3c-19-11-24.9-42.9-17.3-83.1c0.8-4.2 1.8-8.6 2.9-13c-3.4-1-6.7-2-9.9-3.1c-40.2-13.8-66.7-36.5-66.7-59.1c0-21.9 24.7-43 63.3-56.5q6.4-2.3 13.5-4.2c-1-4.1-1.9-8.1-2.7-12.1c-8-40.9-2.3-73.6 16.7-84.6c19.8-11.5 52.8 0.8 85.8 30.1c2 1.8 4 3.7 6 5.6c3-2.9 6.1-5.7 9.1-8.3c31.4-27.3 62.6-38.8 81.6-27.8c19.9 11.4 25.7 46.2 16.8 89.4c-0.5 2.6-1.1 5.3-1.8 8c4 1.2 7.9 2.4 11.7 3.7c39.4 13.6 64.9 34.8 65 56.7zm-15.6 0.1c0-13.3-20.6-30.5-54.4-42.1c-3.5-1.2-7.2-2.3-10.9-3.4c-4.5 14.6-10.5 29.9-17.8 45.6c7.6 16 13.9 31.6 18.5 46.2c2.1-0.6 4.1-1.2 6.1-1.9c36.2-12 58.4-30.3 58.5-44.4zm-75.5 65.4c-15.1 3.5-31.8 6-49.4 7.6c-10 14.5-20.3 27.6-30.6 38.8c3.1 3 6.2 5.8 9.2 8.4c26.5 22.8 51.1 31.5 62.6 24.8c5.5-3.2 9.8-11 12-22.7c2.4-13.1 1.9-29.7-1.8-48.2c-0.5-2.9-1.2-5.8-2-8.7zm-108.8 52.8c2.4-2 4.7-4.2 7-6.4c-10.6-11.4-21.2-24.5-31.3-38.7c-17.7-1.4-34.2-3.8-49.2-7.1c-1.1 4.1-2 8.2-2.7 12.1c-6.5 34.4-1.7 60.1 9.8 66.7c5.4 3.1 14.4 3 25.6-1c12.5-4.4 26.7-13.2 40.8-25.6zm-84.3-71.1c4.6-15.1 10.7-30.9 18-46.8c-7.2-15.7-13.2-31.2-17.8-46.1c-4.4 1.3-8.6 2.6-12.6 4c-33.1 11.6-52.9 28.5-52.9 41.8c0 6.3 4.5 13.9 13.6 21.7c10.1 8.6 24.8 16.5 42.6 22.6c2.9 1 5.9 1.9 9.1 2.8zm11.1-111.5c15.1-3.5 31.5-6 48.7-7.6c10-14.1 20.5-27.1 31.1-38.5c-1.9-1.8-3.7-3.5-5.5-5.1c-28.5-25.3-55.5-35.4-67.7-28.3c-11.5 6.6-16.1 33-9.2 68.1c0.8 3.6 1.6 7.4 2.6 11.4zm165.4 46.3c4.6-10.8 8.6-21.3 11.7-31.4c-10.5-2.4-21.7-4.3-33.3-5.8q5.7 9 11.1 18.3c3.7 6.4 7.2 12.8 10.5 18.9zm-96.4-55.5c7.1-0.3 14.3-0.5 21.5-0.5c7.3 0 14.6 0.2 21.7 0.5c-7.1-9.4-14.3-18.1-21.5-25.9c-7.3 7.9-14.6 16.6-21.7 25.9zm-31.7 18.4c-11.6 1.5-22.7 3.4-33.1 5.7c3.2 10.2 7.1 20.8 11.6 31.6c3.3-6.3 6.7-12.6 10.3-18.9c3.6-6.3 7.3-12.5 11.2-18.4zm-11.2 92.8c-3.6-6.3-7-12.6-10.3-18.9c-4.6 11-8.6 21.8-11.8 32.2q15.6 3.4 33.6 5.4c-4-6.1-7.8-12.3-11.5-18.7zm86.4 36.6c-7.2 0.3-14.6 0.5-22 0.5c-7.3 0-14.4-0.1-21.4-0.4c7.2 9.5 14.6 18.3 22 26.3c7.1-7.9 14.3-16.7 21.4-26.4zm42.5-36.8c-3.7 6.4-7.4 12.6-11.2 18.6c12-1.4 23.4-3.4 34-5.8c-3.3-10.2-7.4-21-12.3-32.1c-3.3 6.5-6.8 12.9-10.5 19.3zm2.1-37c-4.7-9.6-10-19.4-15.7-29.3c-5.7-9.8-11.6-19.2-17.6-28.1c-10.9-0.9-22-1.3-33.3-1.3c-11.2 0-22.3 0.4-33.2 1.2c-6.1 9-12.1 18.4-17.7 28.2c-5.6 9.7-10.8 19.6-15.5 29.4q7 14.7 15.6 29.4c5.6 9.8 11.6 19.3 17.8 28.3c10.6 0.6 21.6 1 33 1c11.4 0 22.6-0.4 33.4-1.2c5.9-9 11.8-18.4 17.5-28.3c5.7-9.9 11-19.8 15.7-29.3zm-47.1-118.6c-2.8 2.4-5.6 5-8.4 7.7c10.5 11.2 20.9 24.2 30.9 38.5c17.2 1.6 33.7 4.2 48.8 7.7c0.6-2.5 1.1-4.9 1.6-7.3c7.7-37.3 2.9-65.8-9.3-72.8c-11.5-6.6-36.7 2.6-63.6 26.2zm-5.6 147.7c-16.3 7.7-35.7 0.7-43.4-15.6c-7.7-16.3-0.7-35.7 15.6-43.4c16.3-7.7 35.7-0.7 43.4 15.6c7.7 16.3 0.7 35.7-15.6 43.4z" />
</svg>